<svg xmlns="http://www.w3.org/2000/svg" version="1.1" xmlns:xlink="http://www.w3.org/1999/xlink" xmlns:svgjs="http://svgjs.dev/svgjs" width="1440" height="700" preserveAspectRatio="none" viewBox="0 0 1440 700"><g mask="url(&quot;#SvgjsMask1004&quot;)" fill="none"><rect width="1440" height="700" x="0" y="0" fill="rgba(250, 250, 250, 1)"></rect><path d="M-86.22 557.33C14.37 557.86 110.14 644.83 306.5 644.83 502.87 644.83 501.03 557.08 699.23 557.33 897.42 557.58 982.45 747.15 1091.95 752.43" stroke="rgba(52, 152, 219, 1)" stroke-width="2"></path><path d="M-210.21 403.06C-51.85 400.34 71.22 193.62 389.94 200.06 708.66 206.5 778.92 778.73 990.09 833.47" stroke="rgba(52, 152, 219, 1)" stroke-width="2"></path><path d="M-41.9 426.37C112.28 423.17 233.39 211.76 538.12 216.37 842.84 220.98 917.82 753.46 1118.13 801.1" stroke="rgba(52, 152, 219, 1)" stroke-width="2"></path><path d="M-31.34 299.58C80.23 300.01 187.47 387.08 406.29 387.08 625.1 387.08 608.95 293.51 843.92 299.58 1078.89 305.65 1131.84 696.38 1281.55 730.4" stroke="rgba(52, 152, 219, 1)" stroke-width="2"></path><path d="M-1.06 138.94C197.91 142.84 434.11 388.91 749.2 404.94 1064.29 420.97 1004.86 691.62 1124.33 710.05" stroke="rgba(52, 152, 219, 1)" stroke-width="2"></path></g><defs><mask id="SvgjsMask1004"><rect width="1440" height="700" fill="#ffffff"></rect></mask></defs></svg>