<svg xmlns="http://www.w3.org/2000/svg" version="1.1" xmlns:xlink="http://www.w3.org/1999/xlink" xmlns:svgjs="http://svgjs.dev/svgjs" width="1440" height="700" preserveAspectRatio="none" viewBox="0 0 1440 700"><g mask="url(&quot;#SvgjsMask1015&quot;)" fill="none"><rect width="1440" height="700" x="0" y="0" fill="rgba(250, 250, 250, 1)"></rect><path d="M1113.95-82.85C976.37-42.66 1060.61 324.13 733.45 346 406.3 367.87 170.28 560.89-27.54 563" stroke="rgba(52, 152, 219, 1)" stroke-width="2"></path><path d="M680.98-74.53C529.81-34.15 516.82 350.98 254.21 383.3-8.41 415.62-57.95 548.31-172.57 551.3" stroke="rgba(52, 152, 219, 1)" stroke-width="2"></path><path d="M1288.58-36.31C1125.36 16.79 1094.28 478.83 848.71 490.84 603.13 502.85 628.77 403.34 408.83 403.34 188.9 403.34 81.08 490.42-31.04 490.84" stroke="rgba(52, 152, 219, 1)" stroke-width="2"></path><path d="M1077.86-94.25C926.4-38.44 906.18 403.08 682.3 416.07 458.42 429.06 484.52 328.57 286.74 328.57 88.96 328.57-7.54 415.55-108.82 416.07" stroke="rgba(52, 152, 219, 1)" stroke-width="2"></path><path d="M723.88-7.93C568.42 37.66 565.55 437.66 294.33 477.29 23.1 516.92-17.28 668.73-135.23 673.29" stroke="rgba(52, 152, 219, 1)" stroke-width="2"></path></g><defs><mask id="SvgjsMask1015"><rect width="1440" height="700" fill="#ffffff"></rect></mask></defs></svg>